#N canvas 547 353 843 449 10;
#X obj 23 -20 inlet hibit;
#X obj 95 -20 inlet;
#X obj 131 -20 inlet;
#X obj 167 -20 inlet;
#X obj 203 -20 inlet;
#X obj 239 -20 inlet;
#X obj 275 -20 inlet;
#X obj 311 -20 inlet lobit;
#X obj 275 3 * 2;
#X obj 239 3 * 4;
#X obj 203 3 * 8;
#X obj 167 3 * 16;
#X obj 132 3 * 32;
#X obj 95 3 * 64;
#X obj 23 3 * 128;
#X obj 121 147 outlet;
#X floatatom 126 116 12 0 0 0 - - -;
#X obj 121 71 ~/pd/sum8;
#X text 261 36 muliplies the 0/1 of each bit by;
#X text 261 48 the appropriate number to create;
#X text 261 60 a decimal number when added.;
#X connect 0 0 14 0;
#X connect 1 0 13 0;
#X connect 2 0 12 0;
#X connect 3 0 11 0;
#X connect 4 0 10 0;
#X connect 5 0 9 0;
#X connect 6 0 8 0;
#X connect 7 0 17 7;
#X connect 8 0 17 6;
#X connect 9 0 17 5;
#X connect 10 0 17 4;
#X connect 11 0 17 3;
#X connect 12 0 17 2;
#X connect 13 0 17 1;
#X connect 14 0 17 0;
#X connect 17 0 15 0;
#X connect 17 0 16 0;
#X coords 0 -1 1 1 102 34 1 100 100;
