#N canvas 555 39 600 477 10;
#X obj 135 166 &;
#X obj 150 -12 inlet get-bit;
#X obj 239 -12 inlet set-bit;
#X obj 101 132 int;
#X obj 224 264 outlet;
#X obj 249 74 \$2;
#X obj 160 65 \$1;
#X obj 160 38 loadbang;
#N canvas 684 133 450 300 2^in 0;
#X obj 162 -55 moses 64;
#X obj 207 -30 64;
#X obj 123 -82 moses 1;
#X obj 162 -31 int;
#X obj 123 -109 inlet;
#X text 185 -91 input is limited to 1-64 and integer only;
#X floatatom 162 13 5 0 0 0 - - -;
#X msg 147 44 2;
#X obj 147 73 pow;
#X floatatom 147 101 5 0 0 0 - - -;
#X obj 147 124 outlet;
#X text 195 101 2^input;
#X obj 123 -59 bng 15 250 50 0 empty empty empty 17 7 0 10 -262144
-1 -1;
#X obj 123 -37 0;
#X connect 0 0 3 0;
#X connect 0 1 1 0;
#X connect 1 0 6 0;
#X connect 2 0 12 0;
#X connect 2 1 0 0;
#X connect 3 0 6 0;
#X connect 4 0 2 0;
#X connect 6 0 8 1;
#X connect 6 0 7 0;
#X connect 7 0 8 0;
#X connect 8 0 9 0;
#X connect 9 0 10 0;
#X connect 12 0 13 0;
#X connect 13 0 6 0;
#X coords 0 -1 1 1 80 18 1 100 100;
#X restore 150 133 pd 2^in;
#X obj 249 46 loadbang;
#X obj 239 111 - 1;
#X obj 135 190 moses 1;
#X obj 224 236 int;
#X obj 199 214 bng 15 250 50 0 empty empty empty 17 7 0 10 -262144
-1 -1;
#X obj 150 102 - 1;
#N canvas 684 133 450 300 2^in 0;
#X obj 162 -55 moses 64;
#X obj 207 -30 64;
#X obj 123 -82 moses 1;
#X obj 162 -31 int;
#X obj 123 -109 inlet;
#X text 185 -91 input is limited to 1-64 and integer only;
#X floatatom 162 13 5 0 0 0 - - -;
#X msg 147 44 2;
#X obj 147 73 pow;
#X floatatom 147 101 5 0 0 0 - - -;
#X obj 147 124 outlet;
#X text 195 101 2^input;
#X obj 123 -59 bng 15 250 50 0 empty empty empty 17 7 0 10 -262144
-1 -1;
#X obj 123 -37 0;
#X connect 0 0 3 0;
#X connect 0 1 1 0;
#X connect 1 0 6 0;
#X connect 2 0 12 0;
#X connect 2 1 0 0;
#X connect 3 0 6 0;
#X connect 4 0 2 0;
#X connect 6 0 8 1;
#X connect 6 0 7 0;
#X connect 7 0 8 0;
#X connect 8 0 9 0;
#X connect 9 0 10 0;
#X connect 12 0 13 0;
#X connect 13 0 6 0;
#X coords 0 -1 1 1 80 18 1 100 100;
#X restore 239 148 pd 2^in;
#X text 78 -44 integer in;
#X obj 101 -12 inlet;
#X text 151 -31 to observe;
#X text 152 -44 bit number;
#X text 242 -44 bit number;
#X text 241 -31 to set in output;
#X text 130 11 get-bit and set-bit bit numbers are 1+ where 1 rightmost
bit;
#X text 314 33 The output is an integer but will only;
#X text 314 46 have one bit which might possibly be on \,;
#X text 314 60 the set-bit \, which will match get-bit.;
#X text 312 87 This object allows you to reposition bits;
#X text 311 100 which is useful when flipping from LSB to MSB;
#X text 311 114 or when embedding two parameters withing a;
#X text 311 128 number.;
#X text 310 174 You would do either of the above by sending a;
#X text 310 187 number to many [bit-route] and then summing;
#X text 310 203 them all into a single integer.;
#X connect 0 0 11 0;
#X connect 1 0 14 0;
#X connect 2 0 10 0;
#X connect 3 0 0 0;
#X connect 5 0 10 0;
#X connect 6 0 14 0;
#X connect 7 0 6 0;
#X connect 8 0 0 1;
#X connect 9 0 5 0;
#X connect 10 0 15 0;
#X connect 11 0 4 0;
#X connect 11 1 13 0;
#X connect 12 0 4 0;
#X connect 13 0 12 0;
#X connect 14 0 8 0;
#X connect 15 0 12 1;
#X connect 17 0 3 0;
