#N canvas 0 22 450 300 10;
#X obj 224 26 inlet;
#X obj 224 56 t a b;
#X obj 225 112 outlet;
#X obj 225 87 f;
#X text 182 4 outputs previous (float) input;
#X connect 0 0 1 0;
#X connect 1 0 3 1;
#X connect 1 1 3 0;
#X connect 3 0 2 0;
