#N canvas 631 138 450 300 10;
#X obj 102 84 moses 1;
#X obj 87 180 int;
#X obj 86 61 t b a;
#N canvas 794 343 450 300 (subpatch) 0;
#X obj 64 37 inlet;
#X obj 114 133 outlet;
#X connect 0 0 1 0;
#X coords 0 -1 1 1 8 8 2 100 100;
#X restore 168 78 pd;
#X obj 102 32 inlet velo;
#X obj 86 11 inlet note;
#X obj 168 213 outlet idx;
#X obj 87 212 outlet val;
#X obj 199 14 inlet off;
#X obj 102 148 \$1;
#X obj 144 148 \$2;
#N canvas 794 343 450 300 (subpatch) 0;
#X obj 64 37 inlet;
#X obj 114 133 outlet;
#X connect 0 0 1 0;
#X coords 0 -1 1 1 8 8 2 100 100;
#X restore 199 121 pd;
#N canvas 794 343 450 300 (subpatch) 0;
#X obj 64 37 inlet;
#X obj 114 133 outlet;
#X connect 0 0 1 0;
#X coords 0 -1 1 1 8 8 2 100 100;
#X restore 279 121 pd;
#X obj 279 14 inlet on;
#X obj 129 122 bng 14 250 50 1 empty empty off 1 7 0 7 -66577 -261682
-191140;
#X obj 144 122 bng 14 250 50 1 empty empty on 3 7 0 7 -66577 -212970
-183525;
#X obj 102 123 cnv 12 26 14 empty empty gate 1 4 0 7 -66577 -149854
0;
#X floatatom 139 103 3 0 0 0 - - -;
#X text 212 37 gate \, as two possible values.;
#X text 212 50 arg1/inlet3 is off value.;
#X text 212 63 arg2/inlet4 is on value.;
#X text 213 83 pitch number is forwarded out;
#X text 213 94 but AFTER gate is output.;
#X connect 0 0 14 0;
#X connect 0 1 15 0;
#X connect 1 0 7 0;
#X connect 2 0 1 0;
#X connect 2 1 3 0;
#X connect 3 0 6 0;
#X connect 3 0 17 0;
#X connect 4 0 0 0;
#X connect 5 0 2 0;
#X connect 8 0 11 0;
#X connect 9 0 1 1;
#X connect 10 0 1 1;
#X connect 11 0 9 1;
#X connect 12 0 10 1;
#X connect 13 0 12 0;
#X connect 14 0 9 0;
#X connect 15 0 10 0;
#X coords 0 -1 1 1 60 38 1 100 100;
