#N canvas 489 280 450 300 10;
#X obj 78 104 t a a;
#X obj 78 232 spigot;
#X obj 111 169 bang;
#X obj 111 202 1;
#X obj 180 459 route bang;
#X obj 148 170 bang;
#X obj 148 203 0;
#X obj 111 134 list split 2;
#X obj 112 331 list split;
#X obj 129 280 list length;
#X obj 129 303 >> 1;
#X obj 78 256 t a a a a;
#X obj 78 417 list split;
#X obj 95 366 list length;
#X obj 95 390 >> 1;
#X obj 51 39 inlet;
#X obj 237 491 outlet;
#X obj 51 73 t b a;
#N canvas 890 531 450 300 tidy 0;
#X obj 66 76 outlet;
#X obj 66 42 inlet;
#X connect 1 0 0 0;
#X coords 0 -1 1 1 8 6 2 100 100;
#X restore 42 446 pd tidy;
#N canvas 890 531 450 300 tidy 0;
#X obj 66 76 outlet;
#X obj 66 42 inlet;
#X connect 1 0 0 0;
#X coords 0 -1 1 1 8 6 2 100 100;
#X restore 42 98 pd tidy;
#N canvas 890 531 450 300 tidy 0;
#X obj 66 76 outlet;
#X obj 66 42 inlet;
#X connect 1 0 0 0;
#X coords 0 -1 1 1 8 6 2 100 100;
#X restore 112 353 pd tidy;
#N canvas 890 531 450 300 tidy 0;
#X obj 66 76 outlet;
#X obj 66 42 inlet;
#X connect 1 0 0 0;
#X coords 0 -1 1 1 8 6 2 100 100;
#X restore 42 359 pd tidy;
#N canvas 890 531 450 300 tidy 0;
#X obj 66 76 outlet;
#X obj 66 42 inlet;
#X connect 1 0 0 0;
#X coords 0 -1 1 1 8 6 2 100 100;
#X restore 106 440 pd tidy;
#N canvas 890 531 450 300 tidy 0;
#X obj 66 76 outlet;
#X obj 66 42 inlet;
#X connect 1 0 0 0;
#X coords 0 -1 1 1 8 6 2 100 100;
#X restore 51 478 pd tidy;
#X obj 291 484 outlet done;
#X text 101 43 based on list-drip by Mathieu Bouchard 2009;
#X text 188 440 fliters out bang;
#X text 91 74 <- send all then bang;
#X connect 0 0 1 0;
#X connect 0 1 7 0;
#X connect 1 0 11 0;
#X connect 2 0 3 0;
#X connect 3 0 1 1;
#X connect 4 1 16 0;
#X connect 5 0 6 0;
#X connect 6 0 1 1;
#X connect 7 0 2 0;
#X connect 7 2 4 0;
#X connect 7 2 5 0;
#X connect 8 0 20 0;
#X connect 9 0 10 0;
#X connect 10 0 8 1;
#X connect 11 0 12 0;
#X connect 11 1 13 0;
#X connect 11 2 8 0;
#X connect 11 3 9 0;
#X connect 12 1 22 0;
#X connect 13 0 14 0;
#X connect 14 0 12 1;
#X connect 15 0 17 0;
#X connect 17 0 23 0;
#X connect 17 1 0 0;
#X connect 18 0 21 0;
#X connect 19 0 0 0;
#X connect 20 0 21 0;
#X connect 21 0 19 0;
#X connect 22 0 18 0;
#X connect 23 0 24 0;
