#N canvas 190 110 520 309 10;
#X obj 240 19 inlet;
#X obj 205 19 inlet;
#X obj -5 92 outlet;
#X obj 205 67 add;
#X obj 170 66 add;
#X obj 170 19 inlet;
#X obj 135 19 inlet;
#X obj 135 66 add;
#X obj 100 66 add;
#X obj 100 19 inlet;
#X obj 65 19 inlet;
#X obj 65 66 add;
#X obj 30 66 add;
#X obj 30 19 inlet;
#X obj -5 19 inlet;
#X obj -5 66 add;
#X floatatom 126 115 12 0 0 0 - - -;
#X text 264 35 sum 8 inputs.;
#X text 266 49 dependancy: [sum];
#X connect 0 0 3 1;
#X connect 1 0 3 0;
#X connect 3 0 4 1;
#X connect 4 0 7 1;
#X connect 5 0 4 0;
#X connect 6 0 7 0;
#X connect 7 0 8 1;
#X connect 8 0 11 1;
#X connect 9 0 8 0;
#X connect 10 0 11 0;
#X connect 11 0 12 1;
#X connect 12 0 15 1;
#X connect 13 0 12 0;
#X connect 14 0 15 0;
#X connect 15 0 2 0;
#X connect 15 0 16 0;
#X coords 0 -1 1 1 102 34 1 100 100;
