#N canvas 243 24 613 750 10;
#X obj 101 155 t a a;
#X obj 101 253 spigot;
#X obj 203 440 route bang;
#X obj 134 185 list split 2;
#X obj 135 332 list split;
#X obj 101 277 t a a a a;
#X obj 101 398 list split;
#X obj 51 90 inlet;
#N canvas 890 531 450 300 tidy 0;
#X obj 66 76 outlet;
#X obj 66 42 inlet;
#X connect 1 0 0 0;
#X coords 0 -1 1 1 8 6 2 100 100;
#X restore 42 427 pd tidy;
#N canvas 890 531 450 300 tidy 0;
#X obj 66 76 outlet;
#X obj 66 42 inlet;
#X connect 1 0 0 0;
#X coords 0 -1 1 1 8 6 2 100 100;
#X restore 42 149 pd tidy;
#N canvas 890 531 450 300 tidy 0;
#X obj 66 76 outlet;
#X obj 66 42 inlet;
#X connect 1 0 0 0;
#X coords 0 -1 1 1 8 6 2 100 100;
#X restore 42 360 pd tidy;
#X obj 51 491 outlet done;
#X text 92 440 fliters out bang;
#N canvas 673 351 450 300 (subpatch) 0;
#X obj 130 104 bang;
#X obj 130 67 inlet;
#X obj 130 176 outlet;
#X obj 130 137 1;
#X connect 0 0 3 0;
#X connect 1 0 0 0;
#X connect 3 0 2 0;
#X restore 134 220 pd 1;
#N canvas 673 351 450 300 (subpatch) 0;
#X obj 130 104 bang;
#X obj 130 67 inlet;
#X obj 130 176 outlet;
#X obj 130 137 0;
#X connect 0 0 3 0;
#X connect 1 0 0 0;
#X connect 3 0 2 0;
#X restore 171 220 pd 0;
#N canvas 596 352 450 300 shift 0;
#X obj 60 49 list length;
#X obj 60 72 >> 1;
#X obj 60 17 inlet;
#X obj 60 102 outlet;
#X connect 0 0 1 0;
#X connect 1 0 3 0;
#X connect 2 0 0 0;
#X restore 152 303 pd shift;
#N canvas 596 352 450 300 shift 0;
#X obj 60 49 list length;
#X obj 60 72 >> 1;
#X obj 60 17 inlet;
#X obj 60 102 outlet;
#X connect 0 0 1 0;
#X connect 1 0 3 0;
#X connect 2 0 0 0;
#X restore 118 371 pd shift;
#X obj 51 124 t b 247 a 240;
#N canvas 890 531 450 300 tidy 0;
#X obj 66 76 outlet;
#X obj 66 42 inlet;
#X connect 1 0 0 0;
#X coords 0 -1 1 1 8 6 2 100 100;
#X restore 177 176 pd tidy;
#N canvas 890 531 450 300 tidy 0;
#X obj 66 76 outlet;
#X obj 66 42 inlet;
#X connect 1 0 0 0;
#X coords 0 -1 1 1 8 6 2 100 100;
#X restore 76 466 pd tidy;
#X obj 177 472 midiout \$1;
#X text 198 163 arg (\$1) is port number;
#X text 49 55 sysex output by Jeff Russ based on list-drip by Mathieu
Bouchard 2009;
#X text 151 87 Accepts a list of bytes (integers 0-256) starting with
vendor ID followed by all data bytes. This list will be prepended and
appended with SoX and EoX byte.;
#X obj 234 141 inlet;
#X connect 0 0 1 0;
#X connect 0 1 3 0;
#X connect 1 0 5 0;
#X connect 2 1 20 0;
#X connect 3 0 13 0;
#X connect 3 2 2 0;
#X connect 3 2 14 0;
#X connect 4 0 10 0;
#X connect 5 0 6 0;
#X connect 5 1 16 0;
#X connect 5 2 4 0;
#X connect 5 3 15 0;
#X connect 6 1 8 0;
#X connect 7 0 17 0;
#X connect 8 0 10 0;
#X connect 9 0 0 0;
#X connect 10 0 9 0;
#X connect 13 0 1 1;
#X connect 14 0 1 1;
#X connect 15 0 4 1;
#X connect 16 0 6 1;
#X connect 17 0 11 0;
#X connect 17 1 19 0;
#X connect 17 2 0 0;
#X connect 17 3 18 0;
#X connect 18 0 20 0;
#X connect 19 0 20 0;
#X connect 24 0 20 1;
#X coords 0 750 1 749 102 16 0;
