#N canvas 114 291 587 358 10;
#X obj 100 118 notegraph;
#X obj 343 100 notecount;
#X obj 553 56 inlet;
#X obj 203 58 notein;
#X obj 175 100 notegate -1 1;
#X obj 175 183 outlet p;
#X obj 343 183 outlet g;
#X obj 423 183 outlet g;
#X connect 0 0 7 0;
#X connect 1 0 6 0;
#X connect 2 0 0 2;
#X connect 3 0 4 0;
#X connect 3 1 4 1;
#X connect 3 1 1 0;
#X connect 4 0 5 0;
#X connect 4 0 0 0;
#X connect 4 1 0 1;
#X coords 0 -1 1 1 460 58 1 100 100;
