#N canvas 510 123 712 603 10;
#N canvas 755 167 450 300 branch3 0;
#X obj 89 -1 inlet;
#X obj 216 -2 inlet;
#X obj 123 26 == 0;
#X obj 136 96 spigot;
#X obj 169 26 == 1;
#X obj 136 165 outlet;
#X obj 183 96 spigot;
#X obj 183 165 outlet;
#X obj 216 26 == 2;
#X obj 262 26 > 2;
#X obj 90 96 spigot;
#X msg 165 135 0;
#X obj 229 96 spigot;
#X obj 229 165 outlet;
#X floatatom 44 65 5 0 0 0 - - -;
#X connect 0 0 3 0;
#X connect 0 0 6 0;
#X connect 0 0 10 0;
#X connect 0 0 12 0;
#X connect 0 0 14 0;
#X connect 1 0 2 0;
#X connect 1 0 4 0;
#X connect 1 0 8 0;
#X connect 1 0 9 0;
#X connect 2 0 10 1;
#X connect 3 0 5 0;
#X connect 4 0 3 1;
#X connect 6 0 7 0;
#X connect 8 0 6 1;
#X connect 9 0 12 1;
#X connect 10 0 11 0;
#X connect 11 0 5 0;
#X connect 11 0 7 0;
#X connect 11 0 13 0;
#X connect 12 0 13 0;
#X restore 103 131 pd branch3;
#X floatatom 103 158 3 0 0 3 1st - -;
#X floatatom 131 159 3 0 0 3 2nd - -;
#X floatatom 160 159 3 0 0 3 3rd+ - -;
#X obj 103 42 noteinfo;
#X connect 0 0 1 0;
#X connect 0 1 2 0;
#X connect 0 2 3 0;
#X connect 4 0 0 0;
#X connect 4 1 0 1;
